<svg xmlns="http://www.w3.org/2000/svg" viewBox="0 0 1920 1080" width="1920" height="1080" font-family="'Inter', 'Helvetica Neue', Arial, sans-serif">
<title>Mismo tamaño, 16 vCPU, distinto procesador</title>
<defs>
<linearGradient id="tv-grad" x1="0" y1="0" x2="1" y2="1"><stop offset="0" stop-color="#4C2FC9"/><stop offset=".5" stop-color="#6D4AE8"/><stop offset="1" stop-color="#A78BFA"/></linearGradient>
<linearGradient id="tv-grad-h" gradientUnits="userSpaceOnUse" x1="96" y1="0" x2="1824" y2="0"><stop offset="0" stop-color="#4C2FC9"/><stop offset=".5" stop-color="#6D4AE8"/><stop offset="1" stop-color="#A78BFA"/></linearGradient>
<radialGradient id="tv-glow-a"><stop offset="0" stop-color="#A78BFA" stop-opacity=".16"/><stop offset=".45" stop-color="#6D4AE8" stop-opacity=".08"/><stop offset="1" stop-color="#6D4AE8" stop-opacity="0"/></radialGradient>
<radialGradient id="tv-glow-b"><stop offset="0" stop-color="#6D4AE8" stop-opacity=".10"/><stop offset="1" stop-color="#6D4AE8" stop-opacity="0"/></radialGradient>
<filter id="sh" x="-10%" y="-10%" width="120%" height="130%"><feDropShadow dx="0" dy="6" stdDeviation="10" flood-color="#15123C" flood-opacity=".07"/></filter>
</defs>
<style>@import url('https://fonts.googleapis.com/css2?family=Inter:wght@400;600;700&amp;family=Montserrat:wght@600;700&amp;family=JetBrains+Mono&amp;display=block');
.k{font:26px 'JetBrains Mono',Menlo,monospace;fill:#15123C}
.h{font-family:Montserrat,Inter,sans-serif;font-size:52px;font-weight:700;fill:#15123C}
.sub{font-size:26px;fill:#5E5A80}
.t{font-size:30px;font-weight:600;fill:#15123C}
.c{font-size:24px;fill:#5E5A80}
.m{font:24px 'JetBrains Mono',Menlo,monospace;fill:#15123C}
.card{fill:#fff;stroke:#DCD6F7;stroke-width:1.5;filter:url(#sh)}
.act{fill:none;stroke:url(#tv-grad);stroke-width:3;filter:drop-shadow(0 0 18px rgb(109 74 232 / .35))}
.idle{fill:none;stroke:#DCD6F7;stroke-width:3;stroke-dasharray:6 6}
.on{fill:none;stroke:#6D4AE8;stroke-width:3}
.dot{fill:#6D4AE8;stroke:#fff;stroke-width:3;filter:drop-shadow(0 0 8px rgb(109 74 232 / .6))}
.gl{fill:none;stroke:#fff;stroke-width:3;stroke-linecap:round;stroke-linejoin:round}
.big{font-size:30px;font-weight:600;fill:#15123C}.lbl{font:24px 'JetBrains Mono',Menlo,monospace;fill:#6D4AE8}.pc{fill:#fff4e5;stroke:#d97706;stroke-width:2;stroke-dasharray:8 6}.pct{font:24px 'JetBrains Mono',Menlo,monospace;fill:#b45309}@media (prefers-reduced-motion: no-preference){@keyframes in{from{opacity:0;transform:translateY(24px)}to{opacity:1;transform:none}}.in{animation:in .7s cubic-bezier(.2,.7,.2,1) both}@keyframes sq{from{opacity:0;transform:scale(.4)}to{opacity:1;transform:none}}.sq{transform-box:fill-box;transform-origin:center;animation:sq .35s ease-out both}}
</style>
<rect width="1920" height="1080" fill="#fff"/><circle cx="1860" cy="40" r="820" fill="url(#tv-glow-a)"/><circle cx="60" cy="1060" r="760" fill="url(#tv-glow-b)"/>
<text x="96" y="74" class="k"><tspan fill="#6D4AE8">[</tspan>VCPU ≠ VCPU<tspan fill="#6D4AE8">]</tspan></text>
<text x="96" y="140" class="h">Mismo tamaño, 16 vCPU, distinto procesador</text>
<text x="96" y="192" class="sub">Qué hay detrás de cada vCPU en una 4xlarge</text>
<g class="in" style="animation-delay:0.30s"><rect x="96" y="240" width="1728" height="200" rx="20" class="card"/><text x="136" y="302" class="t">Intel Xeon 6</text><text x="136" y="342" class="m">m8i.4xlarge</text><text x="136" y="400" class="c">3.9 GHz de turbo sostenido en todos los núcleos</text></g>
<rect x="772" y="272" width="120" height="64" rx="10" fill="none" stroke="#1f6fe5" stroke-width="2"/><rect class="sq" style="animation-delay:1.00s" x="780" y="280" width="48" height="48" rx="6" fill="#1f6fe5" fill-opacity="1"/><rect class="sq" style="animation-delay:1.05s" x="836" y="280" width="48" height="48" rx="6" fill="#1f6fe5" fill-opacity="0.45"/><rect x="900" y="272" width="120" height="64" rx="10" fill="none" stroke="#1f6fe5" stroke-width="2"/><rect class="sq" style="animation-delay:1.10s" x="908" y="280" width="48" height="48" rx="6" fill="#1f6fe5" fill-opacity="1"/><rect class="sq" style="animation-delay:1.15s" x="964" y="280" width="48" height="48" rx="6" fill="#1f6fe5" fill-opacity="0.45"/><rect x="1028" y="272" width="120" height="64" rx="10" fill="none" stroke="#1f6fe5" stroke-width="2"/><rect class="sq" style="animation-delay:1.20s" x="1036" y="280" width="48" height="48" rx="6" fill="#1f6fe5" fill-opacity="1"/><rect class="sq" style="animation-delay:1.25s" x="1092" y="280" width="48" height="48" rx="6" fill="#1f6fe5" fill-opacity="0.45"/><rect x="1156" y="272" width="120" height="64" rx="10" fill="none" stroke="#1f6fe5" stroke-width="2"/><rect class="sq" style="animation-delay:1.30s" x="1164" y="280" width="48" height="48" rx="6" fill="#1f6fe5" fill-opacity="1"/><rect class="sq" style="animation-delay:1.35s" x="1220" y="280" width="48" height="48" rx="6" fill="#1f6fe5" fill-opacity="0.45"/><rect x="1284" y="272" width="120" height="64" rx="10" fill="none" stroke="#1f6fe5" stroke-width="2"/><rect class="sq" style="animation-delay:1.40s" x="1292" y="280" width="48" height="48" rx="6" fill="#1f6fe5" fill-opacity="1"/><rect class="sq" style="animation-delay:1.45s" x="1348" y="280" width="48" height="48" rx="6" fill="#1f6fe5" fill-opacity="0.45"/><rect x="1412" y="272" width="120" height="64" rx="10" fill="none" stroke="#1f6fe5" stroke-width="2"/><rect class="sq" style="animation-delay:1.50s" x="1420" y="280" width="48" height="48" rx="6" fill="#1f6fe5" fill-opacity="1"/><rect class="sq" style="animation-delay:1.55s" x="1476" y="280" width="48" height="48" rx="6" fill="#1f6fe5" fill-opacity="0.45"/><rect x="1540" y="272" width="120" height="64" rx="10" fill="none" stroke="#1f6fe5" stroke-width="2"/><rect class="sq" style="animation-delay:1.60s" x="1548" y="280" width="48" height="48" rx="6" fill="#1f6fe5" fill-opacity="1"/><rect class="sq" style="animation-delay:1.65s" x="1604" y="280" width="48" height="48" rx="6" fill="#1f6fe5" fill-opacity="0.45"/><rect x="1668" y="272" width="120" height="64" rx="10" fill="none" stroke="#1f6fe5" stroke-width="2"/><rect class="sq" style="animation-delay:1.70s" x="1676" y="280" width="48" height="48" rx="6" fill="#1f6fe5" fill-opacity="1"/><rect class="sq" style="animation-delay:1.75s" x="1732" y="280" width="48" height="48" rx="6" fill="#1f6fe5" fill-opacity="0.45"/><text x="780" y="390" class="big" style="fill:#1f6fe5">8 núcleos × 2 hilos (SMT)</text><text x="1200" y="390" class="c">cada par comparte un núcleo físico</text>
<g class="in" style="animation-delay:0.55s"><rect x="96" y="464" width="1728" height="200" rx="20" class="card"/><text x="136" y="526" class="t">AMD EPYC 9R45</text><text x="136" y="566" class="m">m8a.4xlarge</text><text x="136" y="624" class="c">hasta 4.5 GHz</text></g>
<rect class="sq" style="animation-delay:1.50s" x="780" y="504" width="48" height="48" rx="6" fill="#0e9f9a" fill-opacity="1"/><rect class="sq" style="animation-delay:1.55s" x="844" y="504" width="48" height="48" rx="6" fill="#0e9f9a" fill-opacity="1"/><rect class="sq" style="animation-delay:1.60s" x="908" y="504" width="48" height="48" rx="6" fill="#0e9f9a" fill-opacity="1"/><rect class="sq" style="animation-delay:1.65s" x="972" y="504" width="48" height="48" rx="6" fill="#0e9f9a" fill-opacity="1"/><rect class="sq" style="animation-delay:1.70s" x="1036" y="504" width="48" height="48" rx="6" fill="#0e9f9a" fill-opacity="1"/><rect class="sq" style="animation-delay:1.75s" x="1100" y="504" width="48" height="48" rx="6" fill="#0e9f9a" fill-opacity="1"/><rect class="sq" style="animation-delay:1.80s" x="1164" y="504" width="48" height="48" rx="6" fill="#0e9f9a" fill-opacity="1"/><rect class="sq" style="animation-delay:1.85s" x="1228" y="504" width="48" height="48" rx="6" fill="#0e9f9a" fill-opacity="1"/><rect class="sq" style="animation-delay:1.90s" x="1292" y="504" width="48" height="48" rx="6" fill="#0e9f9a" fill-opacity="1"/><rect class="sq" style="animation-delay:1.95s" x="1356" y="504" width="48" height="48" rx="6" fill="#0e9f9a" fill-opacity="1"/><rect class="sq" style="animation-delay:2.00s" x="1420" y="504" width="48" height="48" rx="6" fill="#0e9f9a" fill-opacity="1"/><rect class="sq" style="animation-delay:2.05s" x="1484" y="504" width="48" height="48" rx="6" fill="#0e9f9a" fill-opacity="1"/><rect class="sq" style="animation-delay:2.10s" x="1548" y="504" width="48" height="48" rx="6" fill="#0e9f9a" fill-opacity="1"/><rect class="sq" style="animation-delay:2.15s" x="1612" y="504" width="48" height="48" rx="6" fill="#0e9f9a" fill-opacity="1"/><rect class="sq" style="animation-delay:2.20s" x="1676" y="504" width="48" height="48" rx="6" fill="#0e9f9a" fill-opacity="1"/><rect class="sq" style="animation-delay:2.25s" x="1740" y="504" width="48" height="48" rx="6" fill="#0e9f9a" fill-opacity="1"/><text x="780" y="614" class="big" style="fill:#0e9f9a">16 núcleos, 1 hilo cada uno</text>
<g class="in" style="animation-delay:0.80s"><rect x="96" y="688" width="1728" height="200" rx="20" class="card"/><text x="136" y="750" class="t">AWS Graviton5</text><text x="136" y="790" class="m">m9g.4xlarge</text><text x="136" y="848" class="c">3.3 GHz</text></g>
<rect class="sq" style="animation-delay:2.00s" x="780" y="728" width="48" height="48" rx="6" fill="#6D4AE8" fill-opacity="1"/><rect class="sq" style="animation-delay:2.05s" x="844" y="728" width="48" height="48" rx="6" fill="#6D4AE8" fill-opacity="1"/><rect class="sq" style="animation-delay:2.10s" x="908" y="728" width="48" height="48" rx="6" fill="#6D4AE8" fill-opacity="1"/><rect class="sq" style="animation-delay:2.15s" x="972" y="728" width="48" height="48" rx="6" fill="#6D4AE8" fill-opacity="1"/><rect class="sq" style="animation-delay:2.20s" x="1036" y="728" width="48" height="48" rx="6" fill="#6D4AE8" fill-opacity="1"/><rect class="sq" style="animation-delay:2.25s" x="1100" y="728" width="48" height="48" rx="6" fill="#6D4AE8" fill-opacity="1"/><rect class="sq" style="animation-delay:2.30s" x="1164" y="728" width="48" height="48" rx="6" fill="#6D4AE8" fill-opacity="1"/><rect class="sq" style="animation-delay:2.35s" x="1228" y="728" width="48" height="48" rx="6" fill="#6D4AE8" fill-opacity="1"/><rect class="sq" style="animation-delay:2.40s" x="1292" y="728" width="48" height="48" rx="6" fill="#6D4AE8" fill-opacity="1"/><rect class="sq" style="animation-delay:2.45s" x="1356" y="728" width="48" height="48" rx="6" fill="#6D4AE8" fill-opacity="1"/><rect class="sq" style="animation-delay:2.50s" x="1420" y="728" width="48" height="48" rx="6" fill="#6D4AE8" fill-opacity="1"/><rect class="sq" style="animation-delay:2.55s" x="1484" y="728" width="48" height="48" rx="6" fill="#6D4AE8" fill-opacity="1"/><rect class="sq" style="animation-delay:2.60s" x="1548" y="728" width="48" height="48" rx="6" fill="#6D4AE8" fill-opacity="1"/><rect class="sq" style="animation-delay:2.65s" x="1612" y="728" width="48" height="48" rx="6" fill="#6D4AE8" fill-opacity="1"/><rect class="sq" style="animation-delay:2.70s" x="1676" y="728" width="48" height="48" rx="6" fill="#6D4AE8" fill-opacity="1"/><rect class="sq" style="animation-delay:2.75s" x="1740" y="728" width="48" height="48" rx="6" fill="#6D4AE8" fill-opacity="1"/><text x="780" y="838" class="big" style="fill:#6D4AE8">16 núcleos, 1 hilo cada uno</text>
<text x="96" y="990" class="c">Fuente: EC2 gp.html y describe-instance-types (29-09-2026); páginas de producto M8i y M8a; aws-graviton-getting-started (3.3 GHz)</text>

</svg>
